# xmcd CD database file
#
# Track frame offsets:
#	150
#	19525
#	42965
#	60587
#	82845
#	100825
#	120667
#	143730
#	164100
#	181877
#
# Disc length: 2684 seconds
#
# Revision: 2
# Processed by: cddbd v1.5.1PL0 Copyright (c) Steve Scherf et al.
# Submitted via: CDex 1.51
#
DISCID=790a7a0a
DTITLE=ダイアン・シューア - ラヴ・ソングス
DYEAR=1900
DGENRE=Jazz
TTITLE0=ホエン・アイ・フォール・イン・ラヴ
TTITLE1=スピーク・ロウ
TTITLE2=アイ・ソート・アバウト・ユー
TTITLE3=プレリュード・トゥ・ア・キッス
TTITLE4=わが愛はここに
TTITLE5=ユール・シー
TTITLE6=9月の雨
TTITLE7=ザ・モア・アイ・シー・ユー
TTITLE8=クレイジー
TTITLE9=マイ・ワン・アンド・オンリー・ラヴ
EXTD=
EXTT0=
EXTT1=
EXTT2=Johnny Mercer
EXTT3=D. Ellington
EXTT4=G&i. Gershwin
EXTT5=
EXTT6=
EXTT7=
EXTT8=
EXTT9=
PLAYORDER=
